PathFileType	4	(X/Y/Z)	T1_P2_Vision_NoMovement_0_0-733.trc
DataRate	CameraRate	NumFrames	NumMarkers	Units	OrigDataRate	OrigDataStartFrame	OrigNumFrames
60	60	4	27	m	60	274	733
Frame#	Time	RHip			RKnee			RAnkle			RBigToe			RSmallToe			RHeel			LHip			LKnee			LAnkle			LBigToe			LSmallToe			LHeel			Neck			Head			Nose			RShoulder			RElbow			RWrist			RThumb			RIndex			RPinky			LShoulder			LElbow			LWrist			LThumb			LIndex			LPinky		
		X1	Y1	Z1	X2	Y2	Z2	X3	Y3	Z3	X4	Y4	Z4	X5	Y5	Z5	X6	Y6	Z6	X7	Y7	Z7	X8	Y8	Z8	X9	Y9	Z9	X10	Y10	Z10	X11	Y11	Z11	X12	Y12	Z12	X13	Y13	Z13	X14	Y14	Z14	X15	Y15	Z15	X16	Y16	Z16	X17	Y17	Z17	X18	Y18	Z18	X19	Y19	Z19	X20	Y20	Z20	X21	Y21	Z21	X22	Y22	Z22	X23	Y23	Z23	X24	Y24	Z24	X25	Y25	Z25	X26	Y26	Z26	X27	Y27	Z27
275	4.583333333333333	452.29472750617253	3715.805568746432	639.4016729010064	845.4045944987033	3770.9440701938024	650.3695819516959	1206.1394652474269	3723.181439443224	652.1437084591973	1291.2704384545648	3643.704472219144	649.0494200294158	1293.601409689579	3703.716139439623	605.3177469901461	1282.4056660684246	3814.5238994411325	737.7509659832373	459.44065783132555	3626.8470645179214	849.7352958545782	843.1027141573841	3638.3381035959524	852.5903050038527	1228.3114196011845	3681.0789725453483	859.0743225235831	1304.8040312118005	3549.7244413501135	799.4862891918507	1284.3903689710235	3538.1686893539163	844.7393502488505	1253.3441173764124	3703.258916672353	856.3750119218278	-120.97519880684503	3621.2176974777576	749.0160611151027	-392.5134585288087	3570.395739979804	735.4720609016497	-232.61471827014933	3444.576168788497	697.077476670696	-48.9572633271952	3659.918523010971	576.6823050076748	196.60811762619278	3693.315829503844	527.925989985316	353.11329931405976	3541.531478228182	617.9114817606246	424.89044019288644	3526.6588819282856	723.9537051735442	450.0350002523828	3512.262753607014	720.6883213121247	477.3333943141488	3466.0846454507637	658.9867571459447	-39.542075567671255	3540.2675468432763	895.2179847385553	216.13581735244534	3494.256459004766	906.8345033075295	358.15182338304544	3456.2298967477072	712.1655225411077	402.9497347533233	3461.9540491153402	611.7216653939543	447.37396678434754	3479.3227525529583	613.0914369889371	464.4762426458195	3451.8764402204665	651.8229230838595
276	4.6	450.92260017981096	3717.4206510188105	640.1653472416982	846.519658273399	3771.216963388075	650.5753951297696	1206.5424808873836	3723.1724531368786	652.2149957723295	1292.4340035942055	3643.7023085580418	649.2404457335581	1292.5394065429527	3698.7134387743395	603.1487599795648	1279.8115726225922	3807.627557857423	733.1883705450573	459.4332515013749	3626.8031996370933	849.6496693145939	842.1830713080492	3632.9052972968084	850.8783829811307	1231.9226211155546	3685.906534944012	862.5880911633158	1309.3452679202894	3555.2944977495067	803.7386402518854	1284.881236744894	3538.242095978367	844.9310893187787	1255.8941365839648	3704.8531965424636	856.8592704588082	-120.84974466624617	3621.123323710847	748.9304886413371	-391.9292433062131	3569.7715776851487	734.8607493504212	-232.65481727722943	3448.4950574179197	698.9963561417613	-48.932319401443294	3659.9852305245145	576.7375935706973	196.52241210623055	3692.374282891571	527.0487954922562	353.1090235924803	3541.576903418759	617.9428653464212	425.3890310408175	3526.1732523036235	723.6488296102644	450.5516763242702	3511.859068655517	720.4486349480715	477.3671400335015	3466.0093458475903	658.946013246544	-39.472759342625	3543.4924731894475	897.0955740259867	216.28233665816134	3494.221801009953	906.8145639808884	358.1268490467601	3456.295424557348	712.1648458727218	404.6869015605947	3462.500883284299	611.9571169364509	447.0965806803316	3477.1001481985895	612.4890337124355	465.0720823627136	3454.1335190068608	653.9822846021491
277	4.616666666666666	449.90421159068916	3718.6996721352098	640.747792070903	847.602898121271	3771.4559424992613	650.7457181991234	1207.4750330057	3723.4363524683376	652.487267185356	1293.5906653089353	3644.665438829287	650.1205306059129	1292.3116098010873	3696.239650165383	602.8056510667702	1276.9008529188343	3801.7335926637184	729.4902245008136	459.42746602830664	3626.76013587896	849.5692060046896	841.6405071968289	3627.4558974408637	849.2268963995955	1234.2331965219282	3689.6454847201385	865.4725198476773	1313.540792769275	3561.203716916847	808.5167790483448	1284.8076601860062	3538.089584690095	845.465217947738	1257.8968287724683	3706.154807273272	857.2644066283319	-120.76386856383156	3621.0716396835237	748.8917166309357	-390.51800747833227	3565.9676503548567	733.968604119635	-232.6348051135675	3448.9816994174817	698.4075023447856	-48.88139624535078	3660.100978942679	576.7990158561026	196.65313359942283	3694.113513915161	527.3275163802633	353.1085033680065	3541.613028838566	617.9709203567868	425.63518805352044	3525.9391611345586	723.5180447232783	450.77961624511545	3511.8602249115097	720.4231409597008	478.320708713372	3469.3901599685682	663.559340447671	-39.511078792119804	3541.9280422825514	896.6879700018665	216.21428151207104	3494.372784421034	906.9392334081549	358.0909021032242	3456.3468208818467	712.1677866322772	405.9938796797345	3462.85378662912	612.5771644242425	446.6584575006087	3474.434973072548	611.7973610191287	465.759407283996	3456.6796901204375	656.922628323248
278	4.633333333333334	449.5199985568763	3719.2131873399953	640.9659601023792	848.5101294488401	3771.666258501862	650.8801283597558	1208.5961828689822	3723.860338758828	652.8613733987033	1294.7008918936467	3646.6530192332466	651.7392809923218	1293.124678169099	3697.4580932621666	604.0980710828157	1274.8663386155317	3798.6980167921333	727.7989377153558	459.43896901563147	3626.708727483307	849.5099454378295	841.6996199926475	3625.544708297053	848.6864032266815	1234.0876573379478	3690.218765716304	866.0974588914263	1314.7940989802148	3563.717326224418	810.819595231935	1284.3249843593007	3537.657621917605	846.6666435007686	1258.5780772710461	3706.65935585288	857.4350703693098	-120.75534058546793	3621.080079297822	748.9137522431364	-388.80488272219725	3558.9984228157605	732.4309897727637	-232.57208082182942	3447.0536417846415	696.4106133808738	-48.91819799760745	3660.1640179841743	576.8322752417929	196.7347903752738	3694.7450619295087	528.071897917789	353.1196172839924	3541.599930268632	617.9768093863217	425.7136622630529	3525.818316218262	723.5258251744907	450.7930639593987	3512.0646335867405	720.4931278384836	479.37300395182945	3473.0281087940925	669.1655177255444	-39.58060141357227	3538.337337772883	895.3652708064315	215.61267785596502	3495.005335346323	907.3788327859025	358.0531909392028	3456.354290123817	712.171838531029	405.9121033822796	3461.666870346132	612.9985068740092	445.80334323907084	3469.375893837107	610.4304072594875	466.2006718998862	3458.347342534393	659.8744705259732
